<?xml version="1.0" encoding="UTF-8"?>
<svg id="_Слой_1" data-name="Слой 1" xmlns="http://www.w3.org/2000/svg" viewBox="0 0 540.08 540.08">
  <defs>
    <style>
      .cls-1 {
        fill: #fefefe;
      }

      .cls-1, .cls-2 {
        stroke-width: 0px;
      }

      .cls-2 {
        fill: #662d91;
      }
    </style>
  </defs>
  <path class="cls-1" d="m540.05.56c-.18-.18-.35-.35-.53-.53.45-.1.63.07.53.53Z"/>
  <path class="cls-1" d="m.03,539.52c.18.18.35.35.53.53-.45.1-.63-.07-.53-.53Z"/>
  <path class="cls-1" d="m539.52,540.05c.18-.18.35-.35.53-.53.1.45-.07.63-.53.53Z"/>
  <g>
    <path class="cls-2" d="m336.32,342.61c1.44,2.88-5.41,4.53-6.83,6.83-1.42,2.3,4.55,4.55,4.55,9.1s-7.12,1.13-9.1-2.28-4.55-2.28-6.83,4.55c-2.04,6.11-9.1,2.28-6.83-4.55,2.04-6.11-.9-8.68-.9-8.68-3.33-1.9-6.36-8.21-10.78-1.16-.6-.55-1.09-.89-1.43-1.34q-6.07-7.98-11.13.53c-1.1-3.96-2.13-7.71-3.4-12.28-3.55,8.13-5.42,15.64-2.97,24.41l-4.69-2.2c-.53,5.16,1.69,9.11,4.25,12.96,1.44,2.17,3.25,2.42,5.71,1.74,8.81-2.44,10.93,4.36,9.03,6.57s-6.87-2.03-8.94.09.21,6.67-2.07,8.95c-1.5,1.5-3.97.67-5.84-1.3-2.11-2.23-3.27-5.53-5.54-3.25-1.25,1.25-2.28,4.55-4.55,4.55-3.09,0-2.65-4.91-2.46-7.01s1.32-3.52,2.73-5.17c1.47-1.72.68-5.74-.27-8.31-1.03-2.79-2.03-4.78-3.5-8.15-1.39,3.18-2.52,5.77-4.39,10.06-1.1-8.73-2.54-15.64-4.81-22.37-1.57-4.64-3.98-6.2-8.91-4.91-4.77,1.24-9.78,1.54-14.87,1.81,4.13-3.11,8.8-5.29,12.33-9.02.3-.4.93-1.03.83-1.17-.55-.84-1.22-.32-1.83.06-12.69,6.87-25.59,13.07-40.3,14.38-7.95.71-15.75-.04-23.68-1.42,13.5-4.13,26.61-9.02,38.77-16.42-25.6,9.97-51.25,18.83-78.85,7.47,13.5-.71,26.89-2.01,39.91-6.38-25.11.65-50.42,2.66-72.43-14.66,52.16,7.36,95.68-12.99,137.84-41.57-8.89-2.8-16.17-6.17-22.91-10.81,16.05,2.23,31.9,3.11,47.56-2.63-36.23.97-69.48-5.48-93.63-35.61,8.59,1.12,16.94,3,25.49,3.51,8.58.51,17.14.33,26.97-1.39-22.47-1.95-43.39-5.16-61.47-17.35-17.89-12.05-30.42-28.49-37.84-49,11.74,5.32,22.98,11.34,36.03,11.88.23.26-19.2-12.81-27.85-20.56-11.59-10.39-19.41-23.08-25.4-37.26-4.75-11.23-7.26-23.01-9.73-34.82-.98-4.67-1.12-9.52-1.06-14.66,15.88,19.98,33.96,37.12,57.04,48.88-23.12-25.86-43.94-52.84-47.08-89.29,6.26,7.05,12.54,14.08,18.78,21.15,14.41,16.35,30.91,30.42,47.67,44.23,27.86,22.96,59.97,39.52,89.66,59.73,21.46,14.61,41.78,30.56,57.1,51.99,3.08,4.3,6.92,11.99,8.99,16.86,1.32,3.11,2.83,3.23,5.84,1.03,8.23-6.03,17.61-10.46,27.71-11.89,16.3-2.31,30.89,1.41,43.07,11.19,4.76,3.83,4.6,5.24-1.31,10.47,3.65,1.08,6.99,2.08,10.33,3.04,8.28,2.37,12.23,15.23,6.53,21.54-1.36,1.5-2.57,3.52-5.03.37-5.74-7.35-21.33-11.62-29.56-6.31-7.71,4.98-15.38,9.98-22.01,16.27-14.68,13.93-28.03,29.26-44.1,41.73-2.52,1.96-2.89,5.17-3.62,8-1.93,7.48-3.51,15.07-6.64,22.16-1.27,2.87,2.02,5.85,4.43,7.05,4.55,2.28,15.93-4.55,18.21,0Z"/>
    <path class="cls-2" d="m37.79,394.93c67.36,3.15,131.33,18.85,190.66,51.69,9.03,5,17.19,11.54,27.8,13.59,15.63,3.03,30.19,1.09,43.72-7.45,14.66-9.24,29.99-17.44,45.95-23.9,29.2-11.81,59.29-21.08,90.4-26.74,25-4.55,50.19-7.1,75.58-7.78,5.94-.16,11.32,4.58,11.67,10.39.34,5.7-5.32,12.14-11.85,11.78-9.39-.52-18.59.99-27.87,1.36-9.32.37-18.66,1.86-27.84,3.64-20.79,4.03-41.31,9.05-61.28,16.33-26.74,9.76-51.79,22.69-75.74,37.98-6.19,3.95-12.58,7.56-18.3,12.2-2.39,1.94-4.37,4.21-4.42,7.47-.16,10.96-9.36,16.48-18.23,19.39-17.67,5.81-35.3-7.6-35.22-17.93.04-5.25-3.17-7.37-5.91-9.24-19.64-13.41-39.67-26.28-61.35-36.17-25.54-11.65-51.68-21.6-79.48-26.76-12.21-2.26-24.3-4.81-36.73-5.88-10.99-.94-21.89-2.45-32.97-2.3-7.01.09-11-5.75-10.46-14.14.31-4.88,5.65-8.54,11.72-8.11,3.39.24,6.78.39,10.17.58Z"/>
    <path class="cls-2" d="m293.88,110.43c5.75,13.44,11.23,25.42,20.42,36.95-.37-6.14-2.96-10.18-4.78-14.18-5.54-12.14-9.46-24.57-8.35-38.01.8-9.67,5.13-18.13,11.11-27.02,1.87,11.84,4.52,22.4,9.8,32.18-1.5-19.11-5.09-38.3,5.51-56.91,2.14,9.1,3.78,17.71,6.22,26.1,7.24,24.89,20.74,46.68,34.51,68.32,6.83,10.74,13.67,21.5,16.01,34.34,3.13,17.17-1.81,25.38-7.79,25.19-12.17-.39-23.87,1.94-34.45,8.18-3.58,2.12-5.36,1.68-7.28-1.91-8-14.99-20.71-25.64-33.41-36.42-6.06-5.15-9.23-12.53-11.02-20.34-2.75-11.98-.14-23.43,3.5-36.48Z"/>
    <path class="cls-2" d="m210.6,423.33s-74.55-32.93-131.45-37.48c-15.88-1.27-47.79-2.28-47.79-2.28,0,0,12.87-12.39,23.78-21.36,2.72-2.24,5.31-3.39,9.14-2.45,50.02,12.23,146.32,63.57,146.32,63.57Z"/>
    <path class="cls-2" d="m324.94,424.54c10.68-7.71,68.31-45.97,149.98-64.39,2.93-.66,4.62-.33,6.87,1.52,7.96,6.53,16.16,12.77,24.22,20.09-61.5,2.64-124.64,17.63-181.07,42.78Z"/>
    <path class="cls-2" d="m311.55,413.35c29.8-25.32,119.36-69.09,135.5-74.48,3.62-1.21,6.4-1.06,9.36,1.28,3.98,3.15,8.14,6.08,13.35,9.95-57.09,12.54-109.57,33.24-158.21,63.26Z"/>
    <path class="cls-2" d="m227.87,413.3c-49.17-30.3-101.97-50.8-158.81-63.66,5.63-4.26,10.3-7.97,15.16-11.39,1.67-1.18,3.73-.64,5.73.07,84.12,30,135.3,72.88,137.92,74.97Z"/>
  </g>
</svg>